<?xml version="1.0" encoding="utf-8"?>
<svg version="1.1" xmlns="http://www.w3.org/2000/svg" width="20" height="24" viewBox="0 0 256 256" xml:space="preserve">
<g>
  <path 
    fill="none" 
    stroke="currentColor" 
    stroke-width="10" 
    stroke-linejoin="round" 
    stroke-linecap="round"
    d="M156.3,26.6c-0.6,0.2-1.2,1-1.5,1.5c-0.2,0.6-0.5,7.2-0.7,14.7c-0.1,7.5-0.4,14.9-0.6,16.5l-0.3,3l-70.5,0.1l-70.5,0.1l-1.1,1.3L10,65.2v70.5c0,75.2-0.1,72.6,2.1,73.5c0.4,0.1,27,0.3,58.9,0.3h58.1l3.2,2.8c9.1,7.9,17.9,12.5,29.4,15.4c16.7,4.2,34.5,2.3,49.8-5.3c6.5-3.2,11.2-6.6,16.6-11.7c9.1-8.9,14.7-18.9,17.1-31.1c1.1-5.3,0.8-18.1-0.7-26.2c-2.5-14.3-8.3-30.4-15.7-43.8c-2.7-4.9-3.9-5.9-6.4-5c-1.5,0.5-1.8,1-4.2,7.4c-1.8,4.7-6.2,12-8.6,14.2l-1.3,1.2l0.3-1.4c1.2-5.7,2.3-12.7,2.7-16.9c1.6-16.3-1.3-31.5-8.4-42.8c-10.1-16.1-24.9-30.2-40-38.1C158.9,26,158.2,25.8,156.3,26.6z M167,39.3c15.2,10.1,30.2,28,34.4,41c4.5,14,3.8,31.9-2.1,51.6c-1.8,6-1.8,7.5,0.2,8.5c1.5,0.9,2.9,0.6,5.8-1c6.2-3.3,12.2-9.7,16.9-18.1l2.4-4.3l1.8,4c10.1,22.1,14.2,43.6,11.2,58.2c-4.5,21.7-23.7,38.5-48.4,42.4c-7.2,1.1-17.5,0.8-24.5-0.9c-23.1-5.4-39.5-21.3-43.9-42.4c-0.3-1.6-0.6-5.5-0.6-8.8c0.1-13.5,3.8-23.4,17.3-45.7c13.9-23,18.1-32.6,21.1-48.8c1.8-9.2,3.1-23.8,3.1-33.7c0-4,0.1-5.1,0.6-4.8C162.9,36.6,164.9,37.9,167,39.3z M91.5,89.4V109H54.5H17.6V89.4V69.9h36.9h36.9V89.4z M151.9,70.6c0,1.8-2.5,12-4,16.7c-1.6,4.8-7,16.4-9.3,20.1l-1,1.6h-19.3H99.1V89.4V69.9h26.4C148.7,69.9,151.9,70,151.9,70.6z M56.6,136l-0.1,19.4l-19.4,0.1l-19.4,0.1v-19.5v-19.5h19.5h19.5L56.6,136z M132.9,116.9c0,0.1-2,3.7-4.6,8c-7.1,12.1-11.1,20.5-13.8,30.2c-0.1,0.5-5.4,0.6-25.3,0.5l-25.1-0.1L63.9,136l-0.1-19.4h34.5C117.4,116.6,132.9,116.7,132.9,116.9z M91.5,182.3v19.5H54.5H17.6v-19.5v-19.5h36.9h36.9V182.3z M113,170.7c0.2,6.5,0.5,8.9,1.5,12.7c1.1,4.5,4.5,12.1,7.2,16.4l1.2,2H111h-12v-19.5v-19.5h6.9h6.8L113,170.7z"
  />
</g>
</svg>