<svg xmlns="http://www.w3.org/2000/svg" width="355.43800" height="169.95600" fill-rule="evenodd" viewBox="0 0 266.57848 127.46699"><path d="M198.641 439.957v19.989h7.511v-20.771c.404-.382 3.068-2.926 6.029-2.926 3.862 0 5.87 2.797 5.87 6.44v17.257h7.485v-19.133c0-9.091-6.99-11.099-10.892-11.099-4.685 0-8.028 2.945-9.022 3.942-.313-1.219-1.753-3.282-5.017-3.282-1.161 0-2.673.34-2.817.371.235 1.138.853 3.817.853 9.212zM175.041 451.653v-30.687c0-3.463-2.314-6.146-5.901-6.146h-1.606v39.845c0 3.67 2.273 5.947 6.222 5.947 4.866 0 6.325-3.466 6.325-6.726-.202.105-1.23.525-2.273.525-1.738 0-2.767-1.008-2.767-2.758zM124.864 450.618v-14.592h6.274l2.184-5.644h-8.458v-8.827s-.671-.005-.698 0c-3.34 0-6.805 1.419-6.805 8.754v.073h-5.541v5.643h5.541v17.187c0 4.867 2.881 7.397 6.962 7.397 3.302 0 7.56-1.004 7.56-7.543-.257.158-1.856 1.192-3.613 1.192-2.438 0-3.406-1.491-3.406-3.64zM192.99 421.274c0 2.499-2.085 4.531-4.658 4.531-2.574 0-4.659-2.032-4.659-4.531 0-2.503 2.085-4.534 4.659-4.534 2.573 0 4.658 2.031 4.658 4.534zM192.082 459.946h-7.503v-29.572h7.503zM148.721 429.831c-7.187 0-13.253 5.844-13.253 15.418 0 9.801 5.879 15.363 14.668 15.363 6.985 0 10.606-3.056 11.043-3.34 0 0-.68-1.109-.873-1.419-.98-1.606-2.1-2.121-3.333-2.121-2.472 0-2.788 1.031-6.14 1.031-5.751 0-7.741-4.49-7.881-7.48h19.245v-2.227c0-9.182-5.285-15.225-13.476-15.225zm-5.789 12.131c0-3.367 2.364-6.494 5.673-6.494 3.706 0 5.75 3.221 5.808 6.494zM231.907 414.815h1.591c3.55 0 5.883 2.688 5.883 6.142v19.823h.128l9.406-10.398h8.829l-12.211 12.76 13.155 16.804h-8.708l-10.471-13.685h-.128v13.685h-7.474z" style="fill:#ef7d28;stroke:none" transform="translate(7.89 -333.591)"/><path d="M16.081 427.144c-4.531-2.119-8.25-3.83-8.25-7.295 0-2.643 2.115-4.572 6.299-4.572 1.539 0 2.799.183 4.097.423.68.117 1.405.217 2.006.217 3.654 0 5.717-2.182 7.086-6.316l.568-1.685c-.581-.241-6.552-2.863-14.336-2.863-12.383 0-18.92 7.942-18.916 16.182 0 4.16 1.3 7.166 3.339 9.54 2.626 3.054 6.366 5.05 9.869 6.758 5.1 2.503 9.703 4.355 9.703 8.066.003 3.291-3.398 5.164-7.948 5.164-6.23 0-11.677-3.565-12.371-3.992l-5.118 9.589c.91.515 7.497 4.698 18.345 4.698 11.557-.006 20.308-6.633 20.308-16.828 0-10.143-8.11-13.903-14.68-17.086zM61.28 431.88l20.967-25.701H67.31l-16.72 22.176h-.251v-22.176H38.029l.002 54.445h.732c5.324 0 11.66-2.462 11.66-11.353v-12.502h.248l17.045 23.177H83.38zM82.944 347.855c-4.334.818-10.761 4.75-10.74 11.709.015 6.32 5.182 10.148 5.197 18.427.024 6.225-3.407 10.422-7.119 12.744a59.325 59.325 0 0 1 4.951-.222c3.792-.011 6.078.352 6.22.376l19.445-23.863c-5.399-8.084-11.706-14.356-17.954-19.171ZM99.28 412.292c2.449-3.81 2.755-9.883 2.964-16.07.23-5.767 1.434-10.11 9.153-10.137 1.709-.006 3.338.229 6.291.221 11.305-.051 18.688-3.943 23.28-6.5-9.381-5.983-23.079-12.09-40.07-12.78-1.105 3.125-9.717 27.066-10.367 28.997.097.117 1.607 1.808 3.488 5.102 2.778 4.528 4.27 8.367 5.26 11.167z" style="fill:#dd1c39;stroke:none" transform="translate(7.89 -333.591)"/><path d="M58.207 392.734c-.984.007-1.472-.647-1.607-1.782-.122-1.125-4.988-45.615-5.712-52.349-.104-.983-.349-2.787-.35-3.432-.004-1.037.671-1.578 1.467-1.58 2.305-.006 14.861 2.934 28.188 12.277-3.84 1.084-10.786 5.073-10.755 13.343.027 7.317 5.267 11.345 5.294 18.689.041 11.943-13.684 14.83-16.525 14.834zM100.396 415.468c.208.551.405 1.017.604 1.346.305.519.706.755 1.196.752.31-.002.691-.105 1.111-.295 1.026-.473 41.629-19.377 47.752-22.2.889-.425 2.572-1.177 3.127-1.504.574-.328.837-.805.837-1.292a1.536 1.536 0 0 0-.235-.797c-.765-1.24-4.693-5.408-11.263-9.964-5.214 2.872-13.357 7.311-25.472 7.362-2.968.002-3.638-.199-5.666-.188-5.912.02-7.39 2.549-7.607 7.734-.037.978-.052 2.297-.111 3.739-.188 4.637-.735 11.029-4.273 15.307z" style="fill:#ef7d28;stroke:none" transform="translate(7.89 -333.591)"/></svg>